<?xml version="1.0" encoding="UTF-8"?>
<svg width="876px" height="90px" viewBox="0 0 876 90" version="1.1" xmlns="http://www.w3.org/2000/svg" xmlns:xlink="http://www.w3.org/1999/xlink">
    <title>Group</title>
    <g id="Page-1" stroke="none" stroke-width="1" fill="none" fill-rule="evenodd">
        <g id="Updated_SungHwang_Outlined" transform="translate(-1026.000000, -87.000000)">
            <g id="Group" transform="translate(1026.040000, 87.206000)">
                <path d="M537.66,14.975 C537.66,19.614 540.42,23.095 545.2,25.994 C546.65,26.865 547.09,26.574 548.25,25.414 C550.71,22.95 552.31,19.904 552.31,15.699 C552.31,10.769 549.41,6.418 544.77,6.418 C541.58,6.418 537.66,9.029 537.66,14.975 Z M538.82,33.68 C534.62,36 529.97,40.641 529.97,47.745 C529.97,57.315 538.1,63.406 547.38,63.406 C552.16,63.406 556.8,61.231 561.01,57.461 C562.46,56.011 562.02,55.141 561.01,53.545 C556.08,45.715 548.97,38.465 541.58,33.824 C540.42,33.1 539.84,33.1 538.82,33.68 Z M560.57,16.279 C560.57,21.645 555.79,25.85 551.15,27.88 C549.84,28.459 549.84,29.185 551.58,30.199 C558.11,33.97 562.46,38.9 567.1,45.86 C568.26,47.6 568.84,47.745 569.71,46.44 C572.75,41.221 576.96,33.244 578.99,28.895 C580.87,24.98 580.87,23.095 578.12,22.805 L574.35,22.37 C573.33,21.79 573.33,19.76 574.49,19.18 L579.57,19.18 C587.11,19.18 595.08,19.034 599.43,18.745 C600.45,19.18 600.59,21.355 599.58,21.935 L595.37,22.805 C589.57,23.965 588.12,25.27 583.63,32.085 C580.44,36.725 576.81,42.96 572.46,49.485 C570.87,51.805 571.16,52.53 573.62,55.721 C579.57,63.406 585.51,63.986 588.12,63.986 C591.17,63.986 595.23,62.681 598.56,60.216 C599.58,60.506 600.16,61.521 599.72,62.391 C594.94,67.9 587.69,69.641 582.03,69.641 C576.81,69.641 571.88,68.336 570,66.74 C567.82,64.856 565.79,62.246 565.21,61.231 C564.78,60.361 563.91,59.926 562.75,61.086 C559.85,64.275 552.45,69.641 541.87,69.641 C526.21,69.641 519.97,59.056 519.97,51.226 C519.97,39.915 528.38,33.824 535.78,31.07 C536.5,30.779 536.5,30.199 535.78,29.619 C533.31,27.734 529.54,23.385 529.54,18.02 C529.54,8.449 537.52,2.649 545.35,2.649 C555.06,2.649 560.57,9.464 560.57,16.279 L560.57,16.279 Z" id="Fill-23" fill="#FFFFFE"></path>
                <line x1="808" y1="2.033" x2="808" y2="68.033" id="Stroke-24" stroke="#FFFFFE" stroke-width="2.5"></line>
                <polyline id="Fill-25" fill="#FFFFFE" points="825.17 68.366 825.17 50.646 827.39 50.646 827.39 66.292 835.92 66.292 835.92 68.366 825.17 68.366"></polyline>
                <polyline id="Fill-26" fill="#FFFFFE" points="843.14 68.366 843.14 50.646 845.36 50.646 845.36 66.292 853.89 66.292 853.89 68.366 843.14 68.366"></polyline>
                <path d="M868.26,52.671 L863.96,52.671 L863.96,59.469 L868.29,59.469 C870.66,59.469 871.86,58.369 871.86,55.995 C871.86,53.745 870.46,52.671 868.26,52.671 Z M872.69,60.019 C871.74,60.969 870.29,61.493 868.34,61.493 L863.96,61.493 L863.96,68.366 L861.74,68.366 L861.74,50.646 L868.31,50.646 C870.39,50.646 871.86,51.221 872.81,52.245 C873.66,53.171 874.16,54.445 874.16,55.995 C874.16,57.72 873.64,59.069 872.69,60.019 L872.69,60.019 Z" id="Fill-27" fill="#FFFFFE"></path>
                <path d="M22.56,68.614 C14.95,68.614 9.97,66.171 7.15,63.915 L3.85,68.332 L0.66,68.332 L1.13686838e-13,46.338 L2.16,46.338 C6.02,56.301 12.03,65.795 23.69,65.795 C32.05,65.795 35.63,61.001 35.63,53.951 C35.63,48.218 32.05,43.895 26.41,41.639 C21.06,39.477 18.24,38.442 12.97,36.093 C5.74,32.897 1.88,27.727 1.88,19.361 C1.88,9.399 9.97,1.973 20.68,1.973 C25.57,1.973 30.92,4.135 34.22,6.673 L37.41,2.255 L40.61,2.255 L41.08,23.592 L39.01,23.592 C35.25,12.97 31.02,4.793 18.42,4.793 C15.7,4.793 9.5,7.049 9.5,14.38 C9.5,20.113 12.6,23.403 17.77,26.223 C22.37,28.761 26.32,29.607 30.55,31.675 C38.63,35.341 43.8,39.101 43.8,49.064 C43.8,60.531 34.68,68.614 22.56,68.614" id="Fill-28" fill="#FFFFFE"></path>
                <path d="M83.94,67.58 L83.28,66.923 L83.28,61.19 L83,61.19 C79.43,64.761 76.05,68.521 67.96,68.521 C59.22,68.521 55.74,62.035 55.74,53.199 L55.74,33.461 C55.56,31.486 54.8,29.795 53.3,28.761 C52.17,28.009 50.29,27.352 48.6,27.257 L48.6,25.471 L63.73,24.344 L64.39,25.001 L64.39,54.892 C64.39,61.377 67.77,64.761 71.82,64.761 C78.68,64.761 81.97,60.343 83.19,58.369 L83.19,33.179 C83,31.205 82.25,29.513 80.75,28.479 C79.62,27.727 77.08,27.352 74.64,27.257 L74.64,25.471 L91.09,24.344 L91.74,25.001 L91.74,59.027 C91.93,61.001 92.68,62.505 94.19,63.539 C95.32,64.291 97.01,64.667 98.7,64.761 L98.7,66.547 L83.94,67.58" id="Fill-29" fill="#FFFFFE"></path>
                <path d="M131.41,67.393 L131.41,65.513 C133.1,65.419 134.51,65.231 135.83,64.855 C137.61,64.291 138.37,62.693 138.37,60.625 L138.37,37.973 C138.37,31.486 134.61,27.915 130.57,27.915 C123.7,27.915 119.85,32.333 118.82,34.494 L118.82,60.155 C118.82,62.223 119.66,63.633 121.35,64.385 C122.76,65.043 124.17,65.419 125.77,65.513 L125.77,67.393 L103.59,67.393 L103.59,65.513 C105.28,65.419 106.41,65.231 107.72,64.855 C109.51,64.291 110.26,62.693 110.26,60.625 L110.26,33.648 C110.07,31.675 109.23,29.701 107.72,28.667 C106.6,27.915 104.81,27.257 103.12,27.163 L103.12,25.377 L118.16,24.344 L118.82,25.001 L118.82,31.393 L119,31.393 C122.58,27.915 126.15,23.686 134.23,23.686 C142.97,23.686 147.01,29.607 147.01,38.536 L147.01,60.249 C147.01,62.316 147.77,63.727 149.46,64.479 C150.77,65.043 151.9,65.419 153.59,65.513 L153.59,67.393 L131.41,67.393" id="Fill-30" fill="#FFFFFE"></path>
                <path d="M175.5,25.753 C169.48,25.753 167.79,31.205 167.79,37.408 C167.79,44.082 170.89,49.158 175.59,49.158 C181.14,49.158 183.58,43.706 183.58,37.69 C183.58,31.486 181.42,25.753 175.5,25.753 Z M188,68.614 C185.93,68.332 181.89,67.957 173.43,67.957 C166.75,69.273 164.22,71.904 164.22,77.732 C164.22,81.492 167.88,86.191 178.32,86.191 C187.43,86.191 192.79,82.525 192.79,75.194 C192.79,73.032 192.42,70.024 188,68.614 Z M198.62,32.803 C195.52,32.803 194.58,30.734 194.58,26.787 C191.48,26.787 190.16,27.352 188.75,28.385 L188.75,29.043 C191,31.486 192.32,35.152 192.32,37.973 C192.32,46.15 184.14,51.319 176.44,51.319 L170.99,51.319 C169.29,52.166 167.69,53.293 167.69,55.361 C167.69,59.967 173.15,59.779 177.75,59.967 C180.48,60.061 186.31,60.438 188.28,60.531 C193.83,60.813 200.31,65.419 200.31,73.315 C200.31,81.962 192.89,88.635 176.72,88.635 C161.87,88.635 156.23,84.312 156.23,77.168 C156.23,71.904 161.12,67.486 171.08,67.205 L171.08,66.547 C167.41,65.513 161.21,63.539 161.21,58.182 C161.21,53.575 166.47,51.789 169.58,50.567 L169.58,50.004 C163,47.372 158.95,43.048 158.95,37.502 C158.95,28.856 166.47,23.686 175.78,23.686 C182.26,23.686 187.43,26.505 188.66,26.505 C192.13,24.344 194.11,23.686 198.15,23.686 C200.41,23.686 202.57,25.659 202.57,28.197 C202.57,30.923 201.16,32.803 198.62,32.803 L198.62,32.803 Z" id="Fill-31" fill="#FFFFFE"></path>
                <path d="M262.35,67.393 L262.35,65.324 C264.04,65.231 267.9,64.855 269.12,64.385 C271.37,63.539 272.03,61.847 272.03,59.779 L272.03,35.528 L239.6,35.528 L239.6,59.309 C239.6,61.377 240.36,62.975 242.52,63.915 C243.65,64.385 247.59,65.231 249.28,65.324 L249.28,67.393 L220.15,67.393 L220.15,65.324 C221.84,65.231 225.5,64.855 226.73,64.385 C228.98,63.539 229.64,61.847 229.64,59.779 L229.64,11.561 C229.64,9.493 228.98,7.895 226.73,6.955 C225.13,6.297 221.84,5.357 220.15,5.263 L220.15,3.195 L249.28,3.195 L249.28,5.263 C247.59,5.357 244.21,5.921 242.52,6.485 C240.17,7.237 239.6,9.023 239.6,11.09 L239.6,32.427 L272.03,32.427 L272.03,11.561 C272.03,9.493 271.28,7.895 269.12,6.955 C267.52,6.297 264.04,5.357 262.35,5.263 L262.35,3.195 L291.49,3.195 L291.49,5.263 C289.8,5.357 286.6,5.921 284.91,6.485 C282.56,7.237 282,9.023 282,11.09 L282,59.309 C282,61.377 282.75,62.881 284.91,63.915 C286.04,64.479 289.8,65.231 291.49,65.324 L291.49,67.393 L262.35,67.393" id="Fill-32" fill="#FFFFFE"></path>
                <path d="M355.88,32.427 C351.74,42.766 349.96,47.372 345.73,58.087 C344.41,61.377 343.47,63.915 342.16,68.051 L339.52,68.051 C335.39,56.678 331.63,46.808 327.96,37.597 C325.24,43.706 322.6,51.226 319.88,58.087 C318.56,61.283 317.53,63.915 316.21,68.051 L313.39,68.051 C306.72,51.226 304,44.458 298.54,31.581 C297.51,29.043 294.31,27.163 291.68,26.881 L291.68,24.907 L311.98,24.907 L311.98,27.069 C309.82,27.163 307,27.539 307,29.043 C307,29.137 307.19,29.889 307.66,31.017 C309.54,35.811 313.86,46.62 317.81,56.583 L318.09,56.583 C321.01,49.064 323.92,42.014 326.65,34.494 C326.46,33.931 325.71,32.521 324.96,30.923 C323.73,28.197 321.38,27.163 318.75,26.881 L318.75,24.907 L338.21,24.907 L338.21,26.975 C336.05,27.069 333.32,27.257 333.32,28.856 C333.32,28.949 333.51,29.889 333.98,31.017 C335.76,35.811 340.18,47.372 343.75,56.678 L344.04,56.678 C347.8,46.902 350.33,40.135 352.97,32.427 C353.25,31.581 353.43,30.547 353.43,29.982 C353.43,27.727 348.17,26.787 346.76,26.787 L346.76,24.907 L363.68,24.907 L363.68,26.787 C361.05,27.069 357.1,29.231 355.88,32.427" id="Fill-33" fill="#FFFFFE"></path>
                <path d="M373.93,57.148 C373.93,62.316 376.28,64.667 380.32,64.667 C385.21,64.667 387.28,62.505 389.53,59.686 L389.91,43.236 C380.51,46.15 373.93,48.781 373.93,57.148 Z M398.18,68.332 C393.76,68.332 391.41,66.358 389.91,62.035 L389.63,62.035 C386.24,65.982 381.35,68.521 375.72,68.521 C369.23,68.521 364.81,64.572 364.81,58.557 C364.81,50.85 369.32,48.218 374.02,46.432 C379.38,44.364 385.87,42.766 389.82,40.51 L389.82,35.246 C389.82,33.555 389.53,25.753 381.73,25.753 C378.16,25.753 376.84,27.915 376,28.949 C376,30.359 376.84,32.427 376.84,34.494 C376.84,36.469 374.78,38.536 371.39,38.536 C368.29,38.536 367.16,36.093 367.16,33.648 C367.16,28.009 375.15,23.686 382.3,23.686 C391.6,23.686 398.46,25.096 398.46,37.597 C398.46,45.868 397.99,55.549 397.99,58.651 C397.99,60.061 399.31,63.445 402.41,63.445 C405.51,63.445 405.79,59.779 406.08,56.207 L408.14,56.207 C407.58,64.949 404.01,68.332 398.18,68.332 L398.18,68.332 Z" id="Fill-34" fill="#FFFFFE"></path>
                <path d="M438.6,67.393 L438.6,65.513 C440.29,65.419 441.7,65.231 443.02,64.855 C444.8,64.291 445.56,62.693 445.56,60.625 L445.56,37.973 C445.56,31.486 441.8,27.915 437.75,27.915 C430.89,27.915 427.04,32.333 426,34.494 L426,60.155 C426,62.223 426.85,63.633 428.54,64.385 C429.95,65.043 431.36,65.419 432.96,65.513 L432.96,67.393 L410.78,67.393 L410.78,65.513 C412.47,65.419 413.6,65.231 414.91,64.855 C416.7,64.291 417.45,62.693 417.45,60.625 L417.45,33.648 C417.26,31.675 416.42,29.701 414.91,28.667 C413.78,27.915 412,27.257 410.31,27.163 L410.31,25.377 L425.35,24.344 L426,25.001 L426,31.393 L426.19,31.393 C429.76,27.915 433.34,23.686 441.42,23.686 C450.16,23.686 454.2,29.607 454.2,38.536 L454.2,60.249 C454.2,62.316 454.95,63.727 456.65,64.479 C457.96,65.043 459.09,65.419 460.78,65.513 L460.78,67.393 L438.6,67.393" id="Fill-35" fill="#FFFFFE"></path>
                <path d="M483.34,25.753 C477.33,25.753 475.64,31.205 475.64,37.408 C475.64,44.082 478.74,49.158 483.44,49.158 C488.98,49.158 491.43,43.706 491.43,37.69 C491.43,31.486 489.27,25.753 483.34,25.753 Z M495.84,68.614 C493.78,68.332 489.74,67.957 481.28,67.957 C474.6,69.273 472.07,71.904 472.07,77.732 C472.07,81.492 475.73,86.191 486.16,86.191 C495.28,86.191 500.64,82.525 500.64,75.194 C500.64,73.032 500.26,70.024 495.84,68.614 Z M506.47,32.803 C503.36,32.803 502.42,30.734 502.42,26.787 C499.32,26.787 498.01,27.352 496.6,28.385 L496.6,29.043 C498.85,31.486 500.17,35.152 500.17,37.973 C500.17,46.15 491.99,51.319 484.28,51.319 L478.83,51.319 C477.14,52.166 475.54,53.293 475.54,55.361 C475.54,59.967 481,59.779 485.6,59.967 C488.33,60.061 494.15,60.438 496.13,60.531 C501.67,60.813 508.16,65.419 508.16,73.315 C508.16,81.962 500.73,88.635 484.57,88.635 C469.72,88.635 464.08,84.312 464.08,77.168 C464.08,71.904 468.96,67.486 478.93,67.205 L478.93,66.547 C475.26,65.513 469.06,63.539 469.06,58.182 C469.06,53.575 474.32,51.789 477.42,50.567 L477.42,50.004 C470.84,47.372 466.8,43.048 466.8,37.502 C466.8,28.856 474.32,23.686 483.63,23.686 C490.11,23.686 495.28,26.505 496.5,26.505 C499.98,24.344 501.95,23.686 506,23.686 C508.25,23.686 510.42,25.659 510.42,28.197 C510.42,30.923 509,32.803 506.47,32.803 L506.47,32.803 Z" id="Fill-36" fill="#FFFFFE"></path>
                <path d="M642.2,67.393 L642.2,65.324 C646.05,65.137 651.22,64.761 651.22,61.19 C651.22,57.617 635.34,41.732 629.51,35.904 L628.01,35.904 L628.01,59.309 C628.01,61.377 628.76,62.975 630.92,63.915 C632.05,64.385 636,65.231 637.69,65.324 L637.69,67.393 L608.55,67.393 L608.55,65.324 C610.24,65.231 613.91,64.855 615.13,64.385 C617.38,63.539 618.04,61.847 618.04,59.779 L618.04,11.561 C618.04,9.493 617.38,7.895 615.13,6.955 C613.53,6.297 610.24,5.357 608.55,5.263 L608.55,3.195 L637.69,3.195 L637.69,5.263 C636,5.357 632.61,5.921 630.92,6.485 C628.57,7.237 628.01,9.023 628.01,11.09 L628.01,34.119 L629.04,34.119 C641.26,24.249 652.44,13.158 652.44,8.647 C652.44,5.827 646.52,5.357 644.83,5.263 L644.83,3.195 L671.43,3.195 L671.43,5.263 C669.74,5.357 662.69,5.357 658.18,10.151 C650.19,18.703 646.05,23.873 637.69,30.923 C647.37,40.981 654.23,47.842 662.03,57.711 C663.72,59.873 666.17,62.411 669.83,64.009 C671.62,64.761 674.91,65.231 676.6,65.324 L676.6,67.393 L642.2,67.393" id="Fill-37" fill="#FFFFFE"></path>
                <path d="M686.76,11.655 C683.66,11.655 681.02,9.023 681.02,5.921 C681.02,2.725 683.66,7.10542736e-15 686.76,7.10542736e-15 C690.24,7.10542736e-15 692.68,2.537 692.68,5.545 C692.68,8.834 690.14,11.655 686.76,11.655 Z M676.6,67.393 L676.6,65.513 C678.3,65.419 679.42,65.231 680.74,64.855 C682.53,64.291 683.28,62.505 683.28,60.625 L683.28,33.648 C683.09,31.675 682.25,29.982 680.74,28.949 C679.61,28.197 676.89,27.257 675.2,27.163 L675.2,25.377 L691.17,24.344 L691.83,25.001 L691.83,60.061 C691.83,62.035 692.68,63.633 694.37,64.385 C695.87,65.043 697.28,65.419 698.51,65.513 L698.51,67.393 L676.6,67.393 L676.6,67.393 Z" id="Fill-38" fill="#FFFFFE"></path>
                <path d="M758.85,67.393 L758.85,65.513 C760.54,65.419 761.58,65.231 762.89,64.855 C764.68,64.291 765.43,62.693 765.43,60.625 L765.43,37.879 C765.43,31.393 761.86,27.915 757.82,27.915 C750.96,27.915 747.48,32.427 746.35,34.4 L746.35,60.155 C746.35,62.223 747.1,63.727 748.79,64.479 C750.11,65.043 751.24,65.419 752.93,65.513 L752.93,67.393 L731.31,67.393 L731.31,65.513 C733,65.419 733.85,65.231 735.17,64.855 C736.95,64.291 737.7,62.693 737.7,60.625 L737.7,37.879 C737.7,31.393 734.13,27.915 730.09,27.915 C723.23,27.915 719.75,32.521 718.62,34.494 C718.62,39.758 718.62,60.061 718.62,60.061 C718.62,62.129 719.47,63.633 721.16,64.385 C722.57,65.043 723.7,65.419 725.39,65.513 L725.39,67.393 L703.39,67.393 L703.39,65.513 C705.09,65.419 706.21,65.231 707.53,64.855 C709.32,64.291 710.07,62.693 710.07,60.625 L710.07,33.461 C709.88,31.486 709.03,29.889 707.53,28.856 C706.4,28.104 704.43,27.257 702.74,27.163 L702.74,25.377 L717.87,24.344 L718.53,25.001 L718.53,31.486 L718.81,31.486 C722.48,27.915 725.86,23.686 733.94,23.686 C739.77,23.686 743.91,26.881 746.07,31.769 C749.92,28.104 753.59,23.686 761.67,23.686 C770.41,23.686 774.08,30.171 774.08,38.725 L774.08,60.155 C774.08,62.223 774.83,63.727 776.52,64.479 C777.84,65.043 779.25,65.419 780.94,65.513 L780.94,67.393 L758.85,67.393" id="Fill-39" fill="#FFFFFE"></path>
            </g>
        </g>
    </g>
</svg>